<svg xmlns="http://www.w3.org/2000/svg" xmlns:xlink="http://www.w3.org/1999/xlink" xml:space="preserve" id="Capa_1" x="0" y="0" style="enable-background:new 0 0 500 500" version="1.1" viewBox="0 0 500 500"><style>.st1{fill:#f68712}.st2{fill:#51ade5}</style><defs><path id="SVGID_1_" d="M10.1 3h480v480h-480z"/></defs><clipPath id="SVGID_00000071521841399601286180000003320375485561468345_"><use xlink:href="#SVGID_1_" style="overflow:visible"/></clipPath><path d="M250.1 483c-132.6 0-240-108.1-240-240S117.5 3 250.1 3s240 107.4 240 240-108.1 240-240 240zm0-465.2C125.7 17.8 24.9 118.6 24.9 243s100.7 225.2 225.2 225.2c124.4 0 225.2-100.7 225.2-225.2S373.8 17.8 250.1 17.8z" class="st1" style="clip-path:url(#SVGID_00000071521841399601286180000003320375485561468345_)"/><path d="M352.5 210.1c1.6-3.6 2.7-7.4 3.3-11.2 8.3 6.9 20.4 10.1 32.8 7.5 20.2-4.2 33.6-21.9 30-39.6-3.7-17.7-23-28.7-43.2-24.5-13.8 2.8-24.5 12.1-28.6 23.2-2.8-3.2-6.3-5.9-10.3-8.1-12.9-6.9-28-5.5-39.5 2.1 3 .1 6 .6 9.1 1.5 20.5 6.1 32.3 27.8 26.3 48.3l-26 88.1c-.3.2 28.7-47.2 46.1-87.3" class="st1"/><path d="M329.9 315.2c3.9-.4 7.7-1.4 11.3-2.7-1.8 10.7 1.5 22.7 9.9 32.1 13.7 15.4 35.8 18.2 49.2 6.2 13.5-12 13.3-34.2-.4-49.6-9.4-10.5-22.7-15.2-34.5-13.2 1.3-4 2-8.4 1.8-13-.5-14.6-9.3-27-21.5-33.2 1.4 2.7 2.5 5.5 3.2 8.6 5 20.8-7.9 41.9-28.7 46.9L231 318.8s55.5 1.4 98.9-3.6" class="st2"/><path d="M227.6 348.2c2.4 3.2 5.1 6 8 8.4-10.1 3.8-18.9 12.6-22.9 24.6-6.5 19.6 2.2 40 19.3 45.7 17.2 5.7 36.3-5.6 42.8-25.1 4.4-13.4 1.8-27.2-5.8-36.4 4.2-.9 8.3-2.5 12.2-4.9 12.4-7.8 18.7-21.5 18-35.2-1.6 2.5-3.6 4.9-5.8 7.1-15.5 14.7-40.2 14.1-55-1.4l-63.3-66.6c0-.1 26.5 48.7 52.5 83.8" class="st1"/><path d="M147.9 276.1c-1.6 3.6-2.7 7.4-3.3 11.2-8.3-6.9-20.4-10.1-32.8-7.5-20.2 4.2-33.6 21.9-30 39.6 3.6 17.7 23 28.7 43.2 24.5 13.8-2.9 24.5-12.1 28.6-23.3 2.8 3.2 6.3 5.9 10.3 8.1 12.9 6.8 28 5.5 39.5-2.1-3-.2-6.1-.6-9.1-1.5-20.5-6.1-32.3-27.8-26.3-48.3l26.1-88.1c.2 0-28.8 47.3-46.2 87.4" class="st2"/><path d="M170.5 171.1c-3.9.5-7.7 1.4-11.3 2.8 1.8-10.7-1.5-22.7-9.9-32.1-13.7-15.4-35.8-18.2-49.2-6.2s-13.3 34.2.4 49.6c9.4 10.5 22.7 15.2 34.5 13.2-1.3 4-2 8.4-1.8 13 .5 14.6 9.3 27 21.5 33.2-1.4-2.7-2.5-5.5-3.2-8.6-5-20.8 7.9-41.9 28.7-46.9l89.4-21.5c-.2-.1-55.7-1.5-99.1 3.5" class="st1"/><path d="M272.7 138.1c-2.4-3.2-5.1-6-8-8.4 10.1-3.7 18.9-12.6 22.9-24.6 6.5-19.6-2.2-40-19.3-45.7-17.2-5.7-36.3 5.6-42.8 25.1-4.4 13.4-1.8 27.2 5.8 36.4-4.2.9-8.3 2.5-12.2 4.9-12.4 7.8-18.7 21.5-18 35.2 1.6-2.5 3.6-4.9 5.8-7.1 15.5-14.7 40.2-14.1 55 1.4l63.3 66.6c.1 0-26.4-48.7-52.5-83.8" class="st2"/></svg>